<svg width="106" height="120" viewBox="0 0 106 120" fill="none" xmlns="http://www.w3.org/2000/svg">
<path d="M73.8912 36.1813C73.8912 36.1813 78.8188 16.6305 68.7554 7.75635L72.1561 36.7359L73.8912 36.1813Z" fill="#432918"/>
<path d="M64.3827 59.9609H41.0632V79.7891H64.3827V59.9609Z" fill="#E6C69C"/>
<path d="M41.0632 79.7888C41.0632 79.7888 48.2118 75.0744 54.3886 73.0639C54.3886 73.0639 62.1618 72.7172 64.3827 66.4776V62.2485H41.0632V79.7888Z" fill="#C1A785"/>
<path d="M33.2902 25.7124C33.5678 33.8933 33.5678 42.1434 34.123 50.3243C34.2618 52.3348 33.8454 54.5534 34.7476 56.4946C35.3723 57.8118 36.6909 58.9211 37.5932 59.961C40.7163 63.5662 44.117 66.9633 47.6566 70.2218C47.6566 70.2218 52.376 72.9949 58.9693 70.2218C60.7738 68.2805 62.5783 66.27 64.3828 64.3288C65.7708 62.8035 67.0895 61.3476 68.4775 59.8224C70.629 57.4652 71.8783 56.1479 71.8089 52.9588C71.8089 50.5323 72.0865 48.1058 72.1559 45.6792C72.2947 40.2716 72.7111 34.8639 72.8499 29.4562C72.9193 28.2776 73.1275 27.0297 72.9887 25.8511C72.9887 25.8511 71.3925 7.20155 51.5432 7.89484C51.5432 7.75618 37.0379 8.79612 33.2902 25.7124Z" fill="#F4D2AC"/>
<path d="M71.1149 47.7588L71.9477 48.5215C72.9194 49.7694 74.3768 46.7882 74.3768 46.7882C75.3485 44.0844 76.5977 41.5885 76.5977 38.6074C76.5977 35.6956 74.4462 33.7543 72.2253 35.8342L71.1149 47.7588Z" fill="#F4D2AC"/>
<path d="M34.6784 47.7588L33.8456 48.5215C32.8739 49.7694 31.4165 46.7882 31.4165 46.7882C30.4448 44.0844 29.1956 41.5885 29.1956 38.6074C29.1956 35.6956 31.3471 33.7543 33.568 35.8342L34.6784 47.7588Z" fill="#F4D2AC"/>
<path d="M89.7151 86.7914L63.3419 75.9761H53.0008H52.3068H42.0351L15.5926 86.8608C15.5926 86.8608 1.57312 94.6256 0.185059 120H51.821H53.5561H105.192C103.804 94.5563 89.7151 86.7914 89.7151 86.7914Z" fill="#E6C69C"/>
<path d="M89.7151 86.7911L68.4777 78.0557L52.6538 89.9803L36.8299 78.0557L15.5926 86.7911C15.5926 86.7911 1.57312 94.556 0.185059 119.93H51.821H53.5561H105.192C103.804 94.556 89.7151 86.7911 89.7151 86.7911Z" fill="white"/>
<path d="M33.2902 34.8639L34.6782 47.7591H35.8581L33.2902 25.7124V34.8639Z" fill="#432918"/>
<path d="M72.9891 34.8639L71.6011 47.7591H70.3518L72.9891 25.7124V34.8639Z" fill="#432918"/>
<path d="M33.6376 37.7756C33.0823 33.7545 30.6532 34.8638 30.6532 34.8638C27.0443 9.62796 42.7988 7.75608 42.7988 7.75608L37.5935 5.81486L45.5749 4.84425C45.5749 4.84425 43.007 2.76438 41.0637 2.76438C41.0637 2.76438 50.3637 0.961817 53.1398 2.76438C53.1398 2.76438 50.7107 0.75383 48.698 0.545843C48.698 0.545843 55.4995 -1.32605 61.8152 1.8631C61.8152 1.8631 65.6324 4.0123 68.6861 7.75608C77.0145 16.8382 71.3235 39.5782 71.3235 39.5782C70.3518 31.4667 69.2414 25.7123 69.2414 25.7123C67.4369 13.857 53.6257 18.4328 53.6257 18.4328C33.8458 12.7478 34.8868 39.5782 34.8868 39.5782" fill="#432918"/>
<path d="M49.4613 101.143C49.4613 101.143 49.5307 101.074 49.6695 100.935C49.6001 101.004 49.5307 101.074 49.4613 101.143L47.171 119.584H58.2061L55.9158 101.143L57.4427 94.9032C57.9979 94.0019 58.1367 92.8927 57.5815 91.9221C57.0263 91.0901 56.3322 90.6048 55.5688 90.3968C54.3195 90.0502 52.7927 90.2582 51.4046 90.2582C50.086 90.2582 49.1143 90.3968 48.2121 91.4368C47.3098 92.4767 47.2404 93.6553 48.0039 94.9032L49.4613 101.143Z" fill="#BE1622"/>
<path d="M49.1833 100.172C49.1833 100.172 53.6946 98.0231 55.9155 101.143C55.9155 101.143 52.8617 99.4097 49.461 101.143L49.1833 100.172Z" fill="#00B1C3"/>
<path d="M89.7151 86.7913L72.5725 79.7197L52.6538 113.206L33.2209 79.5117L15.5926 86.7913C15.5926 86.7913 1.57312 94.5561 0.185059 119.931H51.821H53.5561H105.192C103.804 94.5561 89.7151 86.7913 89.7151 86.7913Z" fill="#333231"/>
<path d="M33.2906 79.5811L52.6541 113.275V119.931L34.5399 108.353L38.1488 103.084L18.2996 85.7513L33.2906 79.5811Z" fill="#1B1A1A"/>
<path d="M72.6423 79.5811L52.6542 113.275V119.931L71.3236 108.353L67.7147 103.084L87.5639 85.7513L72.6423 79.5811Z" fill="#1B1A1A"/>
<path d="M41.0635 74.312L52.6538 90.0497L42.2433 101.142L29.1956 81.2449L41.0635 74.312Z" fill="white"/>
<path d="M64.2442 74.312L52.5845 90.0497L63.0643 101.142L76.1121 81.2449L64.2442 74.312Z" fill="white"/>
</svg>
