<svg width="109" height="127" viewBox="0 0 109 127" fill="none" xmlns="http://www.w3.org/2000/svg">
<path d="M66.7778 64.8926H42.8185V85.1186H66.7778V64.8926Z" fill="#E6C69C"/>
<path d="M42.8185 85.048C42.8185 85.048 50.1632 80.239 56.5095 78.1882C56.5095 78.1882 64.496 77.8345 66.7778 71.4697V67.1558H42.8185V85.048Z" fill="#C1A785"/>
<path d="M92.8049 92.2613L65.7081 81.1582H55.0833H54.3702H43.8167L16.6485 92.2613C16.6485 92.2613 2.24439 100.182 0.818237 126.066H53.871H55.6537H108.707C107.28 100.182 92.8049 92.2613 92.8049 92.2613Z" fill="#E6C69C"/>
<path d="M92.8049 92.2617L75.192 85.0482L54.2989 102.587L34.7606 84.9067L16.6485 92.2617C16.6485 92.2617 2.24439 100.182 0.818237 126.066H53.871H55.6537H108.707C107.28 100.182 92.8049 92.2617 92.8049 92.2617Z" fill="#8CD0E5"/>
<path d="M86.5301 112.841H24.5638V126.066H86.5301V112.841Z" fill="#052235"/>
<path d="M31.3379 86.25L22.2819 89.9982L28.6995 122.883L39.0391 121.115L31.3379 86.25Z" fill="#011726"/>
<path d="M79.3993 86.8159L88.4554 90.4934L82.3229 124.651L71.2703 122.883L79.3993 86.8159Z" fill="#011726"/>
<path d="M35.7589 116.943C35.7589 118.64 34.4041 119.984 32.6927 119.984C30.9813 119.984 29.6265 118.64 29.6265 116.943C29.6265 115.246 30.9813 113.902 32.6927 113.902C34.4041 113.902 35.7589 115.246 35.7589 116.943Z" fill="#282727"/>
<path d="M34.9032 116.872C34.9032 118.074 33.9049 119.064 32.6927 119.064C31.4805 119.064 30.4822 118.074 30.4822 116.872C30.4822 115.67 31.4805 114.68 32.6927 114.68C33.9049 114.68 34.9032 115.67 34.9032 116.872Z" fill="#3C3C3B"/>
<path d="M32.4789 116.872C32.4789 117.155 32.2649 117.296 32.051 117.296C31.7658 117.296 31.6232 117.084 31.6232 116.872C31.6232 116.589 31.8371 116.448 32.051 116.448C32.2649 116.448 32.4789 116.66 32.4789 116.872Z" fill="#DADADA"/>
<path d="M33.7624 116.872C33.7624 117.155 33.5485 117.296 33.3346 117.296C33.0494 117.296 32.9067 117.084 32.9067 116.872C32.9067 116.589 33.1207 116.448 33.3346 116.448C33.5485 116.448 33.7624 116.66 33.7624 116.872Z" fill="#DADADA"/>
<path d="M81.0393 117.721C81.0393 119.418 79.6845 120.762 77.9731 120.762C76.2617 120.762 74.9069 119.418 74.9069 117.721C74.9069 116.023 76.2617 114.68 77.9731 114.68C79.6845 114.68 81.0393 116.023 81.0393 117.721Z" fill="#282727"/>
<path d="M80.1835 117.65C80.1835 118.853 79.1852 119.843 77.973 119.843C76.7608 119.843 75.7625 118.853 75.7625 117.65C75.7625 116.448 76.7608 115.458 77.973 115.458C79.1852 115.458 80.1835 116.448 80.1835 117.65Z" fill="#3C3C3B"/>
<path d="M77.7593 117.65C77.7593 117.933 77.5453 118.074 77.3314 118.074C77.0462 118.074 76.9036 117.862 76.9036 117.65C76.9036 117.367 77.1175 117.226 77.3314 117.226C77.5453 117.155 77.7593 117.367 77.7593 117.65Z" fill="#DADADA"/>
<path d="M79.0427 117.65C79.0427 117.933 78.8288 118.074 78.6149 118.074C78.3296 118.074 78.187 117.862 78.187 117.65C78.187 117.367 78.4009 117.226 78.6149 117.226C78.9001 117.155 79.0427 117.367 79.0427 117.65Z" fill="#DADADA"/>
<path d="M34.832 29.9571C35.1173 38.3021 35.1173 46.7178 35.6877 55.0628C35.8303 57.1137 35.4025 59.3768 36.3295 61.3569C36.9713 62.7006 38.3261 63.8322 39.2531 64.893C42.4619 68.5704 45.956 72.0357 49.5927 75.3596C49.5927 75.3596 54.4416 78.1884 61.2158 75.3596C63.0698 73.3794 64.9238 71.3285 66.7778 69.3484C68.2039 67.7925 69.5588 66.3074 70.9849 64.7515C73.1955 62.347 74.479 61.0034 74.4077 57.7502C74.4077 55.275 74.6929 52.7998 74.7642 50.3246C74.9069 44.8084 75.3347 39.2922 75.4773 33.776C75.5486 32.5737 75.7625 31.3008 75.6199 30.0985C75.6199 30.0985 73.9799 11.0747 53.5859 11.7819C53.5859 11.6405 38.6826 12.7013 34.832 29.9571Z" fill="#F4D2AC"/>
<path d="M73.6946 52.4462L74.5503 53.2242C75.5486 54.4971 77.046 51.4561 77.046 51.4561C78.0443 48.698 79.3279 46.1521 79.3279 43.1111C79.3279 40.1409 77.1173 38.1607 74.8355 40.2823L73.6946 52.4462Z" fill="#F4D2AC"/>
<path d="M36.2576 52.4458L35.4019 53.2237C34.4036 54.4966 32.9061 51.4557 32.9061 51.4557C31.9078 48.6976 30.6243 46.1516 30.6243 43.1107C30.6243 40.1404 32.8348 38.1602 35.1166 40.2818L36.2576 52.4458Z" fill="#F4D2AC"/>
<path d="M72.4823 48.3445L75.6199 39.6459L77.973 33.4932L78.6861 35.8269C78.6861 35.8269 80.8253 25.9968 73.6946 12.9842L75.6912 14.8937C75.6912 14.8937 74.5503 6.26581 59.2905 5.77077L61.4297 4.70996C61.4297 4.70996 44.8863 6.33653 42.7471 13.9743C42.7471 13.9743 27.4873 19.0662 35.1172 40.2116L37.6843 48.3445L39.253 46.93C38.6113 42.4747 37.9695 38.0193 37.3277 33.5639C36.8999 30.6644 36.6147 28.3306 37.7556 25.6432C38.6826 23.5216 40.1087 22.1072 42.5332 21.8243C45.029 21.5414 47.2395 22.8144 49.3787 24.0166C51.6606 25.2896 53.8711 26.0675 56.5095 25.7139C58.2921 25.5018 60.0035 24.7946 61.5723 23.8752C61.5723 23.8752 72.7676 18.4297 74.265 27.4819L71.1275 46.2936L72.4823 48.3445Z" fill="black"/>
<path d="M33.0493 31.7249C33.0493 31.7249 41.8201 43.5353 77.1174 35.756L79.0427 31.1592L33.0493 31.7249Z" fill="#CFB494"/>
<path d="M81.3244 29.6033C81.3244 32.2907 69.9865 36.8168 55.9389 36.8168C41.9627 36.8168 30.5535 32.2907 30.5535 29.6033C30.5535 26.916 41.8914 24.7236 55.9389 24.7236C69.9865 24.7236 81.3244 26.916 81.3244 29.6033Z" fill="#F9B233"/>
<path d="M55.7966 34.978C43.8883 34.978 34.1905 31.1591 34.1905 28.8253C34.1905 28.2595 34.7609 27.6938 35.9018 27.1987C33.2635 27.9059 31.6947 28.7546 31.6947 29.6739C31.6947 32.0077 41.3925 35.8266 53.3009 35.8266C60.289 35.8266 66.4928 34.5537 70.4147 32.9978C66.5641 34.1293 61.4299 34.978 55.7966 34.978Z" fill="#FCC133"/>
<path d="M79.7557 27.9769C80.1122 26.2796 79.827 27.7647 79.827 25.9967C79.827 12.4891 69.0595 1.59814 55.725 1.59814C42.4618 1.59814 31.6231 12.5598 31.6231 25.9967C31.6231 27.7647 31.4092 26.4917 31.7657 28.1183C31.837 28.189 59.0052 34.9075 79.7557 27.9769Z" fill="#F9B233"/>
<path d="M71.4127 29.8153C72.4823 29.6738 73.5519 29.3909 74.6215 29.2495C74.9781 29.1788 75.3346 29.1788 75.6912 29.1788C75.9051 27.9058 76.0477 26.5621 76.0477 25.2184C76.0477 12.7009 66.0646 2.58789 53.7284 2.58789C53.0154 2.58789 52.3736 2.65862 51.6605 2.65862C62.9984 3.71942 71.9119 13.4081 71.9119 25.2184C71.8405 26.7743 71.6979 28.3301 71.4127 29.8153Z" fill="#FCC133"/>
<path d="M55.7966 1.45654C42.5334 1.45654 31.6947 12.4182 31.6947 25.8551C31.6947 26.633 31.766 27.3402 31.8373 28.1181C31.9086 28.1181 31.9799 28.1889 32.1225 28.1889C34.6896 28.401 37.2567 29.1789 39.7524 29.674C39.5385 28.401 39.4672 27.1281 39.4672 25.7844C39.4672 13.6205 48.238 3.50743 59.7186 1.6687C58.3637 1.59798 57.0802 1.45654 55.7966 1.45654Z" fill="#E69E30"/>
<path d="M44.1734 4.63916C44.1734 4.63916 51.3755 7.60941 50.5198 28.0476C50.5198 28.0476 48.5232 8.5995 40.9646 6.76077C41.0359 6.69005 42.9612 5.27564 44.1734 4.63916Z" fill="#C58929"/>
<path d="M66.8489 3.93164C66.8489 3.93164 59.6468 6.90189 60.5025 27.3401C60.5025 27.3401 62.4991 7.89198 70.0577 6.05325C69.9864 6.05325 68.0611 4.56812 66.8489 3.93164Z" fill="#C58929"/>
<path d="M50.6622 29.6032C50.6622 29.6032 50.7335 11.2159 43.3176 6.05334C43.3176 6.05334 42.6045 4.92181 43.6741 4.07316C43.6741 4.07316 52.6588 -4.05969 65.7794 2.65875C65.7794 2.65875 68.2752 3.43668 66.4925 5.69973C66.4925 5.69973 60.5027 14.8934 60.4314 29.6032H50.6622Z" fill="#F9B233"/>
<path d="M64.2819 3.7901C60.2887 1.73921 56.7233 1.24417 53.7284 1.45633C56.1528 1.59778 58.8625 2.30497 61.8575 3.7901C61.8575 3.7901 64.1393 4.49731 62.4992 6.5482C62.4992 6.5482 56.5807 16.3076 56.5094 29.6031H58.9338C59.0052 16.3076 64.9237 6.5482 64.9237 6.5482C66.5637 4.49731 64.2819 3.7901 64.2819 3.7901Z" fill="#FCC133"/>
<path d="M47.2395 7.46749C47.2395 7.46749 46.5264 6.33596 47.596 5.48731C47.596 5.48731 54.2989 -0.594645 64.4959 2.09273C52.0884 -3.49418 43.6741 4.14362 43.6741 4.14362C42.6045 4.99226 43.3176 6.12379 43.3176 6.12379C50.6622 11.2157 50.6622 29.6737 50.6622 29.6737H54.5128C54.3702 25.2183 53.3719 11.7107 47.2395 7.46749Z" fill="#E69E30"/>
<path d="M79.756 27.9766C79.756 27.9766 59.5759 33.9171 31.6947 28.118C31.6947 28.118 58.1498 35.968 79.756 27.9766Z" fill="#B2B2B2"/>
<path d="M49.1647 74.9349C50.8761 76.0664 54.8693 76.5615 54.8693 76.5615C60.0748 76.8444 61.6435 74.7935 61.6435 74.7935L70.6996 64.8926C74.4789 61.1444 74.1936 59.1643 74.1936 59.1643L74.4789 53.153C71.8405 58.8107 62.8557 64.539 62.8557 64.539C59.5043 61.2859 54.6554 62.9832 54.6554 62.9832C50.2343 61.3566 45.7419 64.8219 45.7419 64.8219C40.18 62.0638 35.545 50.3242 35.545 50.3242V55.9819C34.9745 60.4372 36.7572 62.2052 36.7572 62.2052C36.7572 62.2052 46.1698 72.9547 49.1647 74.9349Z" fill="black"/>
<path d="M66.2787 69.2067C65.2804 67.6508 64.496 65.6707 62.9272 64.6099L62.8559 64.5391C62.7133 64.4684 62.5707 64.327 62.4994 64.2563C59.1479 61.5689 54.7982 63.054 54.7982 63.054C50.3771 61.4274 45.8847 64.8927 45.8847 64.8927C45.8847 64.8927 45.8134 64.8928 45.8134 64.822C44.316 65.7414 43.3177 67.1558 42.7472 68.7117C45.243 71.399 47.8813 74.0864 49.2362 74.935C50.9476 76.0666 54.9408 76.5616 54.9408 76.5616C60.1462 76.8445 61.715 74.7936 61.715 74.7936L66.4926 69.5603C66.4213 69.4188 66.35 69.2774 66.2787 69.2067Z" fill="black"/>
<path d="M55.0835 65.1757C55.0835 65.1757 54.0139 64.1149 51.0903 65.8829L49.8781 66.7315C49.8781 66.7315 55.1548 70.1968 60.0037 66.7315C60.0037 66.7315 57.2227 63.832 55.0835 65.1757Z" fill="#F4D2AC"/>
</svg>
